<svg version="1" xmlns="http://www.w3.org/2000/svg" width="1440" height="1440" viewBox="0 0 1080.000000 1080.000000"><path d="M454.1 74c-.8.4-2.1.6-2.9.2-.9-.3-1.3-.1-.9.5.5.8-.5.8-3.3.2-2.2-.5-5.1-.7-6.3-.4-1.2.2-3.8.7-5.8.9-2 .3-4.8 1-6.3 1.6-2.5.9-3.7 1.2-10.8 2.5-1.5.3-4 1-5.5 1.6-1.5.6-2.8 1-2.8.9 0-1.4-34.1 10.8-44.1 15.7-5.9 2.9-13.9 6-13.9 5.3 0-.2-1.8.8-4 2.2-3.7 2.3-17 8.8-18.1 8.8-.3 0-6.2 2.9-13.2 6.4-13.7 6.9-31.6 17.5-39.7 23.4-2.7 2.1-6.9 5-9.3 6.5-2.3 1.5-6.6 4.9-9.5 7.5-2.9 2.6-7.7 6.7-10.7 9.2-5.3 4.4-22.1 20.9-27 26.6-10.3 12-13.7 16.5-21.8 28.7-5 7.5-9.6 15.4-10.3 17.5-.6 2-1.6 4.3-2.2 4.9-.5.7-.6 1.3-.2 1.3.4 0 .2.7-.5 1.5s-1.4 2.7-1.5 4.2c-.1 1.6-.8 5.5-1.6 8.8-.7 3.3-1.3 6.8-1.2 7.7 0 1-.3 1.8-.7 1.8-.3 0-.6 1.6-.5 3.5 0 1.9-.2 3.5-.5 3.5-1.5 0-1.9 48.6-.4 51.6.8 1.4.9 2.4.3 2.4-.5 0-.4 1 .3 2.2.7 1.3 1.2 2.7 1.3 3.1 0 .4.5 1.1 1 1.5.6.4 1.1 1.4 1.1 2.2.3 3 .9 4.5 2.6 6.1 1 .9 1.5 1.9 1.1 2.3-.3.3-.1.6.5.6s.9.7.6 1.5c-.4.8-.1 1.5.5 1.5s1.7 1.1 2.3 2.5c.6 1.4 1.8 2.5 2.5 2.5.8 0 1.2.4.9.9-.3.4.8 2.3 2.4 4.1 1.6 1.8 2.7 3.7 2.4 4.2-.3.5 0 .7.7.6.7-.2 1.8.7 2.4 1.9.7 1.3 1.5 2 1.8 1.7.3-.4 1.5.9 2.6 2.7 1.2 1.9 2.1 2.9 2.1 2.4 0-.6 1 .1 2.1 1.5 1.2 1.4 2.4 2.5 2.8 2.5.3 0 .5.4.3.8-.1.5.2.6.8.2.5-.3 1-.1 1 .5s.4.9.9.6c1.1-.7 3.3 1.9 2.3 2.8-.4.4-.2.7.3.6 2.3-.5 4.6.1 4 1-.3.5.5 1.5 1.9 2.1 1.4.7 2.3 1.6 2 2-.3.5.1.9.8.9.7 0 2.7 1.2 4.3 2.7 1.6 1.6 3.2 2.8 3.5 2.8.3 0 .4.4.2.8-.1.5.1.6.6.3.4-.3 2.4.8 4.3 2.5 1.9 1.6 4 2.9 4.7 2.9.7 0 1 .4.7 1-.3.5.1 1 .9 1 .9 0 1.6.4 1.6 1 0 .5.5 1 1.1 1 .6 0 2.2.9 3.6 2s2.9 1.7 3.4 1.4c.5-.3.9.2.9 1 0 .9.7 1.6 1.5 1.6 2.4 0 2.8.3 6 3.5 1.6 1.6 3.1 2.9 3.2 2.7 1-.8 2.3 0 1.7 1-.4.7-.4 1 .1.6.8-.8 13.4 5.5 16.3 8.2.9.9 3.2 2.3 5 3 1.7.8 3.2 1.7 3.2 2.1 0 .3 1.6 1.1 3.5 1.9 1.9.8 3.5 1.8 3.5 2.4 0 .5.3.7.6.3.7-.6 8.5 3.1 9.5 4.6.3.5.8.8 1 .7 1.2-.6 8.8 3.4 8.2 4.3-.3.5-.1.7.5.3.6-.3 1.3-.2 1.7.4.3.5 1.5 1 2.5 1s2.5.7 3.4 1.5c.8.8 2 1.5 2.7 1.5.7 0 2 .6 2.8 1.4.9.7 4.5 2.9 8.1 4.8 10.3 5.5 13 7.2 13 8.1 0 .5.4.6.9.2.5-.3 1.5.1 2.3.8 1.8 1.8 15.6 8.7 17.4 8.7.8 0 1.4.4 1.4 1 0 .5.9 1 2 1s2 .4 2 1c0 .5.3.9.8.8 1-.3 8.2 2.5 8.2 3.2 0 .3 1 .6 2.2.7 1.1.1 2.4.6 2.7 1 .3.4 1.3.9 2.1 1.1.8.2 2.2 1 3.1 1.8.9.8 2 1.4 2.5 1.3 1.7-.4 4.4 1.3 3.7 2.4-.3.6-.1.7.5.3.6-.4 2.8.1 4.9 1 2.1 1 4.1 1.6 4.6 1.6.4-.1.7.3.7.8 0 .6.8 1 1.8 1s3.7.9 5.9 2c2.3 1.1 6.2 2.5 8.7 3.2 2.5.7 4.6 1.6 4.6 2.1s.7.7 1.5.3c.8-.3 1.5-.1 1.5.5s.6.9 1.4.6c.7-.3 1.8-.1 2.3.4.5.5 2 1.2 3.3 1.4 1.3.2 2.6.8 2.9 1.2.3.5 1.2.8 1.9.9 2.7.2 3 .5 2.7 2.1-.2 1-.4 2.2-.4 2.6-.1.5-.6.5-1.3.1-.6-.4-.8-.3-.5.3.4.6-.2 2.1-1.3 3.3-1.1 1.3-2 2.9-2 3.7 0 .7-.4 1.3-1 1.3-.5 0-1 .6-1 1.4 0 .8-1.3 2.5-2.8 3.8-1.6 1.3-2.7 2.9-2.4 3.6.2.7-.1 1.2-.7 1.2-1.4 0-7.2 12.1-6.4 13.4.3.5.1.6-.5.2-.7-.4-1.2-.1-1.2.8s-.5 1.6-1.1 1.6c-.5 0-.7.4-.4 1 .3.5.1 1-.5 1s-.8.4-.5 1c.3.5.1 1.9-.5 3.1-1.6 2.8-2.4 18.9-1 18.9.5 0 1 .8 1 1.7.1 2.5 2.2 5.1 5.2 6.2 1.8.7 3.5.5 6.6-.9 2.3-1.1 4.2-2.4 4.2-3 0-.6.5-.8 1-.5.6.3 1-.1 1-1s.4-1.4.9-1c.5.3 1.2-.4 1.6-1.5.3-1.1 1-2 1.4-2 .8 0 3.5-5.1 3.1-5.9-.1-.2.2-.7.7-1 1.9-1.3 6.3-7.8 5.6-8.4-.3-.4-.1-.7.5-.7.7 0 1.2-.7 1.2-1.5s.5-1.5 1-1.5c.6 0 1-.7 1-1.5s.4-1.5 1-1.5c.5 0 .9-.6.7-1.3-.1-.6.3-1.1 1-1 .7.2 1-.6.8-1.6-.2-1.1.3-2.2 1.1-2.5.8-.3 1.4-1.3 1.4-2.1 0-.9.4-1.3 1-1 .5.3 1.5-.5 2.1-1.9.7-1.4 1.6-2.3 2-2 .5.3.9-.2.9-1 0-.9.5-1.6 1.1-1.6.5 0 .7-.5.4-1-.3-.6.1-1 .9-1 .9 0 1.5-.3 1.5-.8-.4-2.1.3-3.4 1.5-2.9 1 .4 1.2 0 .9-1.4-.3-1 0-1.9.6-1.9s1.1-.6 1.1-1.4c0-2.1 2.3-2.5 4-.7.8.9 3.4 2.3 5.8 3.1 2.3.7 4.2 1.7 4.2 2.2 0 .4.3.7.8.7.4-.1 1 0 1.5.1.4.1 1 .3 1.5.5 1.7.5 4.7 1.9 5.2 2.5.3.3 3.5 2.1 7.3 3.9 3.7 1.8 6.7 3.7 6.7 4.2s.3.8.8.7c.4-.1 3.9 1.4 7.7 3.2 3.9 1.8 7.3 3.3 7.8 3.2.4-.1.7.3.7.8 0 .6.6 1 1.4 1 .7 0 2.6 1 4.2 2.2 1.5 1.3 2.4 1.6 1.9.9-.5-.8.3-.6 1.7.5 1.4 1 2.3 2.3 2 2.8-.3.5 0 .6.6.2.6-.4 2.3.1 3.7 1 1.4.9 2.5 1.4 2.5 1 0-.3 1.2.4 2.6 1.7 1.4 1.2 3 2.2 3.4 2.2.5 0 1.9.8 3 1.8 1.2 1 2.5 1.5 3 1.2.6-.4 1-.3 1 .2 0 .4 2.4 1.9 5.3 3.3 2.8 1.3 6 3.1 7 3.9.9.8 1.7 1.1 1.7.7 0-.8 11.3 6.3 12.2 7.8.4.6.8.7.8.3 0-.5.7-.2 1.5.5 3.4 3 4.3 3.6 4.9 3.1.3-.3.8.2 1.2 1.1.3.9 1 1.4 1.4 1.1.5-.3 1.5.2 2.3 1 .9.8 2.2 1.5 3.1 1.5.8 0 1.7.4 2.1.9.8 1.4 9.4 7.1 10.6 7.1.5 0 .9.4.9 1 0 .5.7 1 1.5 1s1.5.5 1.5 1.2c0 .6.3.9.6.5.6-.6 1.9.2 5.9 3.9 1.3 1.2 2.6 1.9 2.9 1.7.3-.3.8.2 1.2 1.1.3.9 1 1.6 1.6 1.6.5 0 1.5.6 2.2 1.2 2.8 2.7 6.6 5.8 6.6 5.3 0-.6 3.7 2.4 6.5 5.2 1.2 1.3 2.6 2.3 3 2.3.4 0 2 1.3 3.5 3 1.5 1.6 3.1 3 3.5 3 .3 0 2.3 1.6 4.3 3.5 14.8 13.9 18.2 17.3 18.2 18.1 0 .5.9 1.6 2 2.4 1.1.8 2 1.8 2 2.3 0 .5.7 1.5 1.5 2.4.8.8 1.3 1.9 1 2.4-.4.5 0 .9.8.9 1.4 0 3.3 4.4 2.8 6.3-.1.5.3.6.9.2.5-.3 1 .1 1 .9 0 .9.4 1.6 1 1.6.5 0 .7.7.4 1.5-.4.8-.1 1.5.4 1.5.6 0 .9.9.7 2-.2 1.1 0 2 .6 2 .5 0 .9.8.9 1.8s.7 2.7 1.5 3.8c.8 1.2 1.1 2.4.7 2.8-.3.4-.1 1 .6 1.4.6.5 1.3 1.7 1.5 2.7.5 2.5 1.6 5.5 2.8 7.8.5 1 .7 2.2.4 2.7-.3.4.2 1.6 1.1 2.4 1.1 1.2 1.2 1.6.2 1.6-.9 0-1 .2-.1.8.6.4 1.1 1.8 1.1 3.2 0 1.4.1 5.6.2 9.5.1 3.8-.1 9-.5 11.5-.3 2.5-.7 5.1-.7 5.7-.1.7-.6 1.3-1.2 1.3s-.4.5.4 1c1.1.7 1.1 1 .2 1-.7 0-1 .4-.7 1 .3.5.1 1.9-.6 3.1-.8 1.6-.8 2 .1 1.4.9-.6.9-.2.1 1.4-.7 1.2-.9 2.7-.5 3.3.4.7.3.8-.4.4-.8-.5-1.2 0-1.2 1.3 0 1.2-.4 2.1-.8 2.1s-.8.9-.9 2c-.1 1.1-.9 2.7-1.7 3.5-.8.8-1.8 2.4-2.1 3.5-.3 1.1-1.1 2-1.6 2-.6 0-.7.4-.4 1 .3.5.2 1-.3 1s-1.5 1.3-2.2 3c-.7 1.7-1.6 3-2.1 3s-.9.7-.9 1.5-.9 2.4-2 3.5-2 2.4-2 3c0 .5-.5 1-1.2 1-.6 0-.9.3-.5.6.3.3-.9 2-2.6 3.7-1.8 1.7-3.2 3.4-3.2 3.7.1 1.3-9 9.8-9.9 9.3-.6-.3-.8-.3-.4.2.9 1-.9 4.5-2.3 4.5-.5 0-2 1-3.2 2.3-1.2 1.3-3 2.6-3.9 3-1 .3-1.8 1.1-1.8 1.7 0 .6-.4.9-.9.5-.6-.3-1.5.4-2.1 1.5-.6 1.1-1.5 1.8-2.1 1.5-.5-.4-1.2 0-1.5.9-.3.8-3 2.7-6 4.3-3 1.5-5.4 3.1-5.4 3.5 0 .5-.7.8-1.5.8s-1.5.4-1.5 1c0 .5-.5 1-1 1-1.2 0-7.1 3.9-8.1 5.4-.4.5-1.1.6-1.7.2-.5-.3-1.2.4-1.5 1.5-.3 1.2-1 1.9-1.4 1.6-.5-.3-2.2.5-3.8 1.9-1.5 1.3-3.4 2.4-4.2 2.4-.7 0-1.3.5-1.3 1.1 0 .6-.7.8-1.6.5-.8-.3-1.3-.2-.9.3.3.5-1.1 1.5-3 2.1-1.9.6-3.5 1.6-3.5 2.1s-.9.9-2 .9-2 .5-2 1c0 .6-.3.9-.7.8-1-.3-10.3 4.4-10.3 5.2 0 .3-1 .7-2.2.7-1.3.1-2.4.7-2.6 1.3-.2.5-1.2 1-2.2 1-1 0-2.2.5-2.5 1-.4.6-1 .8-1.5.5-.5-.3-1.1-.1-1.5.5-.4.6-1.1.8-1.6.5-.5-.4-.9-.2-.9.4 0 .9-4 2.7-4.9 2.2-.2-.2-.7.1-1 .6-.9 1.3-7.4 4.2-11 4.9-1.7.4-3.1 1-3.1 1.5s-.8.9-1.9.9c-1 0-3.6.8-5.7 1.7-2.2.9-4.2 1.6-4.6 1.5-.5-.1-.8.2-.8.6 0 .4-1 .8-2.2.9-1.1.1-2.5.8-2.9 1.5-.7 1.1-.9 1.1-.9 0 0-1-.4-1-1.6.2-.8.9-2 1.7-2.5 1.7-1 .2-2.5.5-3.6.9-.5.1-1.1.2-1.5.1-.5 0-.8.3-.8.7 0 .4-.8.8-1.7.9-1 .1-3.1.5-4.8.8-1.6.3-3.7.8-4.5.9-.8.2-2.3.6-3.2 1-.9.4-2.2.8-3 1-.7.1-1.9.5-2.5.9-.7.5-1.3.6-1.3.3s-1.5.1-3.4.9c-1.8.8-3.6 1.1-4 .8-.3-.4-.6-.1-.6.7 0 1-.4 1-1.7-.1-.9-.8-1.4-.9-1-.3.4.7-.7 1.3-3.1 1.7-2 .3-4.8.9-6.2 1.2-6.1 1.5-7.6 1.8-9.2 1.9-.9 0-1.4.4-1.2.8.3.4-.3.8-1.3.8-1.1 0-2.5.6-3.2 1.2-1.1 1.1-1.2 1-.6 0 .6-1.1.3-1.2-1.1-.4-2 1-13.4 3.7-14.6 3.4-.5-.1-.8.3-.8.9 0 .6-.6.9-1.4.6-.8-.3-1.7-.3-2 .1-.7.6-3 1.2-5.3 1.4-.7.1-1.3.5-1.3 1 0 .6-.6.8-1.2.5-.7-.2-2.1 0-3 .5-1.3.6-1.8.5-1.8-.4 0-1.1-.2-1.1-.8 0-.5.7-1.8 1.4-3 1.7-1.2.2-2.7.7-3.2 1-.6.3-1 0-1-.7 0-.8-.3-.9-.8-.3-1 1.4-5.6 3.9-4.8 2.7.6-.9-1.6-.4-7.4 1.6-.8.3-2.4.7-3.5.8-1.1.1-2.3.3-2.7.4-.5.1-1.2.4-1.8.5-.5.1-1.2.4-1.5.5-.3.1-.9.4-1.5.5-.5.1-1.1.4-1.2.5-.2.1-1.6.4-3.3.5-1.6.2-3.2.4-3.5.5-.3.1-.8.2-1.2.1-.5 0-.8.3-.8.8 0 .4-1.5.8-3.3.8-1.8-.1-3.7.2-4.3.6-.6.3-2.9.7-5.2.8-2.3.2-4.2.6-4.2 1 0 .3-1.1.4-2.5.1-1.4-.2-2.5 0-2.5.5 0 .6-1.2.9-2.7.8-1.6-.1-3.6.2-4.5.7-1.2.6-1.8.5-1.8-.2 0-.8-.6-.8-2 0-1.1.6-3.1.8-4.5.6-1.4-.3-2.5-.1-2.5.4s-1.2.7-2.7.6c-1.6-.2-3.6 0-4.5.5-1.1.6-1.8.5-2.1-.4-.4-.8-.6-.7-.6.3-.1 1.1-1.1 1.5-3.3 1.5-1.8-.1-3.7.1-4.3.4-.5.3-2.3.6-4 .7-4.7.3-14 1.3-14 1.4 0 .1-1.3.3-3 .5-1.6.2-5.2.7-8 1-2.7.4-6 .8-7.2.9-1.3 0-2.3.4-2.3.8s-1.4.5-3.2.1c-2.3-.5-2.9-.3-2.3.6.6 1 .3 1.1-1.2.2-1.1-.6-2.2-.8-2.4-.6-.3.2-4.1.6-8.6.8-4.5.3-8.7.8-9.2 1.2-.6.3-1.1.4-1.1.1 0-.3-1.1-.1-2.5.4-1.5.6-2.5.6-2.5 0 0-.7-5.4.2-6.4 1.2-.1.2-1-.3-1.9-1.1-1.4-1.1-1.8-1.1-2.2 0-.4 1.1-3 1.4-10.4 1.3-5.5 0-9.8.3-9.6.6.4.6-3.6.5-4.2 0-.8-.7-3-.5-4 .3-.9.6-1.3.5-1.3-.2 0-.8-.5-.9-1.8-.2-1 .6-2.4.6-3.2.1-.8-.5-1.8-.6-2.4-.3-.5.4-2.6.7-4.7.7-2.1.1-4.1.4-4.5.9-.4.4-1.3.2-2-.4-.8-.7-1.4-.7-1.9.1-.5.8-1.1.7-2.3-.2-1-.8-1.3-.9-.9-.1.5.8-.4 1-3 .8-2.1-.1-4.2 0-4.8.3-1.7 1-4.5.9-4.5-.2 0-.7-.3-.7-.8.1-.4.6-4.5 1.4-9.2 1.7-8.7.6-14.3 1.2-14.7 1.6-.2.1-1.2.4-2.3.5-1.1.1-2.1.3-2.2.4-.2.2-1.4.4-2.7.7-1.4.2-2.9.8-3.5 1.3-.6.5-1.9.7-2.8.6-1-.2-1.8.1-1.8.6 0 .6-.4.8-.9.5-.5-.3-1.4.1-2.1.9-.7.8-1.8 1.5-2.5 1.5s-1.5.7-1.9 1.5c-.3.8-1.2 1.5-1.9 1.5-.8 0-2 1.4-2.7 3-.7 1.7-1.5 3-1.9 3-1.7 0-1.7 17 0 18.1.8.5 1 .9.5.9-.4 0-.1 1.1.8 2.5s1.4 3.1 1 3.8c-.4.7-.4.9.1.5 1.1-1.1 3.6 1.2 2.8 2.5-.3.5-.1.7.5.3.6-.3 1.7.1 2.6.9.8.8 1.9 1.5 2.3 1.4.4-.1 1 0 1.3.1 2.2.8 6.3 1 18 .9 7.4-.1 26.7-.2 42.8-.3 16 0 29.2-.5 29.2-.9s.9-.3 2 .3 2 .7 2 .3c0-1.1 7.1-.9 8.9.1.9.6 1.2.5.7-.2-.4-.7 1.4-1.1 5.6-1.2 6.2-.1 13.5-.6 19.1-1.4 1.5-.2 3 .1 3.3.6.3.4 1.1.5 1.7.1 1.6-1 3.2-1.3 10.5-1.7 3.4-.1 6.5-.6 6.9-.9.3-.4 1.5-.2 2.6.4 1.4.8 1.8.8 1.3 0-.5-.7.6-1.1 3.1-1.2 2.1 0 5.4-.3 7.3-.6 1.9-.2 5-.5 6.7-.6 1.8-.1 3.3-.5 3.3-.8 0-.3 1.2-.7 2.8-.7 1.5-.1 4.3-.4 6.2-.7 1.9-.4 5.2-.8 7.2-.9 2.1-.1 4.1-.5 4.4-.9.4-.4 2-.7 3.5-.7s3.1-.5 3.4-1c.4-.6 1.1-.8 1.6-.4.5.3 3.3 0 6.2-.5 2.8-.6 6.3-1.4 7.7-1.6 1.4-.3 4-.7 5.8-.9 1.8-.2 3.5-.6 3.8-.9.3-.3 1.2-.3 2 0s1.4.1 1.4-.5.8-.9 1.8-.7c.9.1 2.3-.3 3.1-.9 1.2-.9 1.3-.8.6.3-.6 1.1-.5 1.2.6.5.8-.4 1.9-.9 2.4-1.1 4.6-1 5.6-1.3 6.5-1.8.6-.3 1 0 1 .7 0 1 .2 1 .8.1.4-.7 2.3-1.4 4.3-1.6 1.9-.2 4-.7 4.7-1.1.7-.4 1.6-.5 2.1-.1.5.3 1.2.1 1.5-.4.4-.5 1.7-.8 3.1-.7 1.3.2 2.2 0 2-.4-.3-.4.7-.8 2-.9 1.4-.1 3.6-.2 5-.3 1.4-.1 2.5-.6 2.5-1.2 0-.5.3-.7.6-.3.3.3 2.2 0 4.2-.7 2.1-.7 4.7-1.2 6-1.1 1.2.1 2.2-.2 2.2-.7 0-.5.5-.6 1-.3.6.3 1 .3 1-.2 0-.4 1-.8 2.3-.9 1.2 0 3.6-.4 5.2-.8 1.7-.5 3.8-.8 4.8-.9.9-.1 1.7-.4 1.7-.7 0-.3 1-.6 2.3-.7 3.3-.3 5.1-.8 6.5-1.6.6-.5 1.2-.5 1.2-.1 0 .3.8 0 1.7-.7 1.5-1.2 1.6-1.2.8.1s-.6 1.3.8.1c.9-.7 2.3-1.1 3.1-.8.8.3 1.7-.1 2-.9.3-.9 1-1.3 1.6-.9.5.3 3.5-.2 6.6-1.1 3.1-.9 6.4-1.8 7.3-1.9.9-.2 1.6-.4 1.6-.5 0-.3 3.9-1.1 5.5-1.2.8 0 2-.4 2.5-.8 1.1-.9 7.6-2.5 8.8-2.2.4.1.7-.3.7-.9 0-.6.6-.9 1.4-.6.8.3 2.2 0 3.2-.8 1.5-1 2.2-1.1 3.3-.2 1.2 1 1.3.9.6-.2-.6-1.1-.4-1.3.8-.8 1 .3 1.7.2 1.7-.3 0-.6.8-1 1.8-1 .9-.1 3.5-.8 5.7-1.6 4.6-1.7 8.2-2.6 10.7-2.8.9 0 1.4-.4 1.1-1-.3-.5.5-.7 2-.4 2 .4 2.4.2 1.9-1.1-.5-1.4-.3-1.4 1.1-.2 1.2.9 1.7 1 1.7.2 0-.7.5-.9 1-.6.6.3 1 .2 1-.3s.7-.9 1.5-1c.8-.1 2.2-.3 3-.4.8-.1 1.5-.5 1.5-.9 0-.5.7-.6 1.5-.3.8.4 1.5.1 1.5-.6s.6-1 1.4-.7c.8.3 1.7.3 2.1-.1.4-.4 1-.7 1.3-.8.4 0 1.5-.4 2.4-.8.9-.4 2.2-.8 3-1 .7-.1 1.9-.5 2.6-.9.6-.5 1.6-.6 2.1-.3s1.2-.1 1.5-1c.4-.9.9-1.4 1.3-1.1.3.3 2 0 3.9-.8 2.4-1 3.4-1.1 3.8-.2.2.7.5.5.5-.5.1-.9.8-1.5 1.8-1.4 1 .2 2.4-.3 3.1-1.1.8-.7 1.7-1.1 2.2-.8.5.3 1.1.1 1.5-.5.4-.6 1.1-.8 1.6-.5.5.4.9.1.9-.5s.3-.9.8-.7c.4.3 2.4-.3 4.5-1.3s3.5-1.3 3.1-.7c-.3.7.2.3 1-.7.9-1.1 1.6-1.6 1.6-1.2 0 .4 1.6-.1 3.6-1.3 1.9-1.2 3.3-1.7 3-1.2-.3.5.5.4 1.9-.2 1.4-.7 2.5-1.7 2.5-2.2 0-.6.5-.3 1 .5.8 1.3 1 1.2 1-.3 0-1 .4-1.6.9-1.2.6.3 2.5-.3 4.4-1.4 1.9-1.1 3.8-1.7 4.1-1.4.3.4.6 0 .6-.7s.3-1.1.6-.8c.3.3 3.9-1.2 8.1-3.3 4.1-2.1 7.9-3.6 8.3-3.4.5.3 1.1.1 1.5-.5.4-.6 1.1-.7 1.7-.4.6.4.8.2.5-.3-.7-1 2-2.8 3.6-2.5.4.1.7-.3.7-.9 0-.5.4-.8.9-.4.5.3 1.6-.1 2.4-.9.8-.8 1.7-1.2 2.1-.9.3.3.8-.1 1.2-1 .3-.9 1.1-1.4 1.7-1.1.7.2 2.4-.7 4-2.1 1.6-1.5 2.7-2.1 2.7-1.3s.5.6 1.1-.5c.5-.9 1.5-1.7 2-1.7.6 0 2.4-.9 4-2.1 1.6-1.1 3.4-1.7 4-1.3.8.4.9.3.5-.4-.7-1.1 3.8-3.8 5.7-3.4.4.1.6-.1.5-.5-.2-.5.1-.9.5-1 .5-.1 1.7-1.1 2.6-2.2 1-1.1 2.1-1.8 2.5-1.4.3.4 1.3-.3 2.2-1.5.8-1.2 2.2-2.2 3-2.2.8 0 1.4-.5 1.4-1 0-.6.7-1 1.5-1s1.5-.5 1.5-1.1c0-.6.7-.9 1.5-.5.8.3 1.4.2 1.4-.2-.3-1.9.2-3.3 1-2.7.6.3 1.4-.3 2-1.2.6-1 1.1-1.5 1.1-1.1 0 .4 1.2-.4 2.6-1.7 1.4-1.3 3.8-3.5 5.3-4.9 1.5-1.4 3.4-2.6 4.1-2.6.7 0 1.1-.3.8-.6-.8-.7 7.2-8 8.4-7.6.5.1.7-.2.4-.7-.3-.4.9-2.4 2.7-4.3 5.7-6.2 10.2-12 9.9-12.9-.1-.5.4-.9 1.2-.9.8 0 1.8-.5 2.2-1.2.5-.7.3-.8-.6-.3-.7.4-.2-.6 1.1-2.4 1.2-1.7 2.7-3.1 3.3-3.1.5 0 .7-.3.3-.6-.3-.3.5-2.4 1.9-4.5 1.3-2.1 2.4-4.3 2.4-4.8 0-.6.7-1.4 1.6-1.9.9-.5 1.5-1.1 1.3-1.3-.1-.2.3-2 1-3.9.6-1.9 1.2-3.7 1.2-4 0-.3.8-1.3 1.6-2.3.9-.9 1.2-1.7.8-1.7-.5 0-.4-.5.3-1.2s1.2-2 1.2-3 .6-1.8 1.3-1.8c.8 0 .7-.4-.3-1s-1.1-1-.2-1c.6 0 1.2-.9 1.2-2s.4-2 .9-2c.4 0 .7-1.1.6-2.5-.2-1.4.1-2.5.6-2.5.4 0 .6-.7.3-1.5-.4-.8-.2-1.5.3-1.5.9 0 1-.8 1.6-7.7.1-1.8.5-3.3.9-3.3.3 0 .4-1 0-2.2-.4-1.6-.2-1.9.8-1.3.9.6 1.1.4.5-.6-1.2-1.9-1.2-14.9 0-14.9.6 0 .5-.4-.1-.8s-1.1-2.4-1-4.5c.2-2 0-3.7-.4-3.7-1 0-.6-5.4.5-6.2.6-.5.5-.8-.4-.8-.7 0-1.1-.6-.7-1.5.3-.8.2-1.5-.2-1.5s-.7-1.2-.7-2.7c.1-1.6-.2-3.5-.6-4.4-.4-.8-.9-2.7-1.1-4.2-.2-1.4-.7-2.9-1.1-3.3-1.2-1.2-.8-2.6.6-1.8.6.4.5-.1-.4-1.2-2.6-3.1-3.4-4.8-1.8-3.8 1.1.6 1 .2-.2-1.6-.9-1.4-1.5-3.5-1.4-4.7.1-1.2-.2-2-.7-1.7-.4.3-.8-.2-.8-1 0-.9-.4-1.6-.8-1.6-.5 0-.9-.6-.9-1.4 0-.7-1-3.5-2.2-6-1.2-2.6-1.9-5.1-1.6-5.6.4-.6 0-1-.8-1-1.3 0-3.1-3.3-2.8-5.3.1-.4-.4-.7-1.1-.7-.6 0-.9-.3-.5-.6.3-.4-.1-1.3-.9-2.1s-1.2-1.8-.9-2.3c.3-.4-.2-1-1-1.4-.8-.3-1.5-1.2-1.5-2.1 0-.8-.5-1.5-1.1-1.5-.5 0-.7-.5-.4-1 .3-.6.1-1-.4-1-.6 0-1.1-.7-1.1-1.5s-.4-1.5-1-1.5c-.5 0-1-.6-1-1.4 0-.8-.7-1.7-1.6-2-.8-.3-1.3-1-1-1.4.3-.5-.4-1.5-1.5-2.2-1-.8-1.9-2-1.9-2.7 0-.7-.9-1.8-2-2.5s-2-1.8-2-2.5-.4-1.3-.8-1.3c-.5 0-1.5-1.1-2.2-2.5-.7-1.3-1.7-2.2-2.2-1.9-.4.3-.8 0-.8-.6 0-.7-1.3-2.5-3-4-1.6-1.5-3-3.3-3-3.8 0-.6-.9-1.3-1.9-1.7-1.1-.3-2.3-1.5-2.6-2.6-.4-1-1.1-1.7-1.6-1.4-.5.4-.9-.1-.9-.9 0-.9-.5-1.6-1.1-1.6-.5 0-.7-.4-.4-1 .3-.6-.1-.7-.9-.4-1.1.4-1.6 0-1.6-1 0-.9-.5-1.6-1.1-1.6-1.4 0-3.9-2.6-3.9-4.1 0-.7-.3-.9-.7-.6-.3.4-2.3-1.1-4.5-3.3-2.1-2.3-3.8-3.8-3.8-3.5 0 .3-1.6-1-3.5-2.9-2-2-3.9-3.7-4.3-3.8-.9-.3-3.8-2.7-6.8-5.6-1.3-1.2-2.8-2.2-3.4-2.2-.5 0-1-.4-1-.8 0-.5-1.1-1.5-2.5-2.2-1.3-.7-2.1-1.8-1.8-2.4.3-.6.3-.8-.1-.4-.4.3-2.8-.9-5.3-2.8-2.4-1.9-4.9-3.4-5.4-3.4-.6 0-.7-.5-.4-1 .3-.6-.1-1-.9-1-.9 0-1.6-.5-1.6-1.1 0-.5-.4-.7-1-.4-.6.3-1-.1-1-.9 0-.9-.8-1.6-1.9-1.6-1 0-2.2-.7-2.5-1.6-.3-.8-.9-1.3-1.3-1.1-1.1.7-3.3-1.9-2.5-2.8.4-.4.3-.5-.3-.4-1.3.4-9.5-4.2-9.5-5.3 0-.4-.7-.8-1.5-.8s-1.5-.5-1.5-1c0-.6-.7-1-1.5-1s-1.5-.5-1.5-1.1c0-.5-.4-.8-.8-.5-.5.3-1.5-.4-2.2-1.5-.8-1-2-1.9-2.7-1.9-.6 0-1.7-.8-2.2-1.8-.6-.9-1.1-1.3-1.1-.9 0 .5-1.3 0-2.9-.9-1.7-1-2.8-2.1-2.6-2.4.2-.4-.1-.7-.8-.7-.7 0-3.8-1.6-6.9-3.6-3.1-1.9-5.9-3.3-6.2-3-.3.4-.6.1-.6-.5 0-.7-.7-1.2-1.5-1.2s-1.5-.5-1.5-1c0-.6-.5-1-1.1-1-.6 0-3.1-1.4-5.6-3-2.4-1.7-4.1-2.5-3.8-1.8.4.7 0 .5-.8-.5-.8-.9-1.8-1.7-2.3-1.7-.5 0-2.6-1.1-4.7-2.5-2-1.4-3.7-2.2-3.7-1.8 0 .4-.7-.1-1.5-1.1-.8-1.1-1.5-1.6-1.5-1.1 0 .4-.8.1-1.7-.8-1-.8-2.2-1.7-2.8-1.9-.5-.2-.9-.7-.7-1.1.1-.5-.1-.6-.6-.3-1.1.7-9.2-3.1-9.2-4.3 0-.5-.9-.8-2-.6-1.1.2-2 0-2-.6 0-.5-.7-.9-1.5-.9s-1.5-.5-1.5-1c0-.6-.9-1-2-1s-2-.5-2-1c0-.6-.9-1-2-1s-2-.5-2-1.2c0-.6-.3-.8-.7-.5-.3.4-1.2-.1-2-1.1-.8-.9-1.2-1.1-.8-.5.3.7.1 1.3-.4 1.3-.6 0-1.1-.5-1.1-1 0-.6-.9-1-2.1-1-1.1 0-1.7-.5-1.4-1 .3-.6 0-1-.7-1-.8 0-4-1.3-7.3-3-3.3-1.6-6.6-3-7.3-3-.7 0-1-.5-.7-1 .4-.6.3-1-.2-.9-.4.1-1.5.1-2.4 0-1.9-.1-2.1-3.1-.2-3.1.8 0 1.2-.4.8-1-.3-.5.3-1.8 1.3-2.8 1.9-1.9 3.6-5.2 3.4-6.5-.1-.4.3-.7.8-.7.6 0 1.5-1.1 2-2.5 1-2.5 1.9-3.9 5.3-7.6.9-1 1.5-1.9 1.2-1.9-.3 0 .3-1 1.5-2.2 1.1-1.2 2-2.8 2-3.5 0-.7.7-1.3 1.7-1.3.9 0 1.3-.3 1-.6-.4-.4.2-1.9 1.3-3.4s1.7-3 1.3-3.4c-.3-.3-.1-.6.5-.6.7 0 1.2-.5 1.2-1 0-.6.5-1.6 1-2.3 4.7-5.5 5.8-7.2 5.4-7.9-.3-.4-.1-.8.5-.8s1.8-1.6 2.7-3.5c.9-1.9 2.1-3.5 2.7-3.5.6 0 .8-.3.4-.6-.3-.3.5-1.8 1.9-3.3 1.3-1.4 3-3.8 3.6-5.3.7-1.5 1.5-2.5 1.8-2.3.4.2 1.3-1.1 2-3 .8-1.9 1.8-3.5 2.2-3.5.5 0 .7-.4.4-.9-.3-.5.1-1.1.9-1.5.8-.3 1.5-1 1.5-1.6 0-.6.7-1.8 1.5-2.7.8-.8 1.2-1.9.9-2.5-.4-.6-.3-.8.3-.5.5.3 2.4-1.9 4.2-4.9 1.9-2.9 3.8-5.4 4.4-5.4.6 0 .8-.3.4-.6-.3-.3-.2-1.1.4-1.8 6.4-7.8 9.9-12.7 9.9-13.6 0-.6.4-.9.9-.6.4.3 1.7-1 2.7-2.9 1.3-2.4 2.4-3.3 3.4-3 1.2.5 1.3.4.3-.6-1.5-1.5-1.8-3.3-.4-2.5.4.3 1.3-.6 1.9-1.9.7-1.4 1.6-2.5 2.2-2.5.6 0 .8-.5.5-1-.3-.6-.1-1 .4-1 .6 0 1.1-.5 1.1-1.1 0-.6.7-1.7 1.5-2.6.8-.8 1.3-1.9.9-2.4-.3-.5-.2-.9.3-.8 2.7.5 3.5-.1 2.3-1.7-1.1-1.2-1.1-1.5.1-1.2.8.2 1.3-.3 1.1-1-.1-.8.1-1.1.5-.9.8.5 2.5-1 3.4-2.8.2-.6.7-.9 1.1-.8.4.2.5-.4.2-1.2-.4-.8.1-1.7 1-2.1.9-.3 1.3-1 1-1.5-.3-.5 0-.9.6-.9s1.6-1.3 2.1-3c.6-1.6 1.5-2.7 2-2.4.5.3.9-.4.9-1.6 0-1.2.5-1.8 1-1.5.6.3 1 0 1-.8s.7-2 1.5-2.7c.8-.7 1.2-1.7.8-2.3-.3-.5-.2-.8.3-.5.5.3 1.7-.3 2.7-1.4 1.1-1.2 1.3-1.8.5-1.8-.7-.1-.2-.7 1.2-1.5s2.1-1.5 1.5-1.5c-.5 0-.1-.7.9-1.5 1.1-.8 1.6-1.5 1.1-1.5s0-.7 1.1-1.5c1-.8 1.6-1.5 1.2-1.5-.4 0 .8-1.6 2.8-3.5 1.9-1.9 3.2-3.5 2.8-3.5-.3 0-.1-.6.5-1.3.6-.8.8-1.7.4-2.1-.4-.4 0-.4 1 0 1 .3 1.7.1 1.7-.5 0-.7.5-1.7 1-2.4 3.9-4.6 5-6.1 5-6.9 0-.5.5-.6 1-.3.6.3 1-.1 1-.9 0-.9.4-1.6 1-1.6.5 0 .6-.7.3-1.7-.4-1.1-.3-1.4.5-.9.7.4 1.5 0 1.9-1 .6-1.6 3-4.7 8-10 1.2-1.3 2-2.4 1.8-2.4-.3 0 .3-.8 1.3-1.8 3.2-3.5 5.2-6.2 5.2-7.2 0-.6.7-1 1.6-1 .8 0 1.2-.5.9-1-.3-.6-.1-1 .5-1s.8-.5.5-1c-.3-.6-.1-1 .4-1 .6 0 2-.9 3.1-2s1.7-2 1.3-2c-.5 0 .8-1.4 2.7-3.1 1.9-1.7 2.8-2.8 2-2.3-.8.4.4-1.1 2.8-3.4 2.3-2.4 4.2-4.7 4.2-5.3 0-.6.5-.7 1-.4.6.3 1 0 1-.8s.7-1.8 1.6-2.1c.8-.3 1.2-1 .9-1.6-.3-.5-.1-1 .4-1 1.8 0 5.1-3.8 3.8-4.4-.8-.3-.7-.5.2-.5.7-.1 2.4-1.2 3.6-2.5 1.3-1.4 2.6-2.2 3.1-1.8.4.4.4.2 0-.5-.9-1.6 3.1-5.6 4.6-4.7.7.5.8.3.3-.5-.4-.8.1-1.8 1.4-2.7 1.2-.8 2.1-2.2 2.1-3 0-.8.4-1.3.9-1 .5.3 1.4-.1 2.1-.9 1-1.2 1-1.5 0-1.5-.8 0-1-.3-.7-.6.4-.4 1.3-.1 2.2.6 1.3 1.1 1.4 1 1-.2-.4-.9.1-1.8 1-2.2 1-.3 1.3-1.1.9-1.8s-.4-1 .1-.6c.4.4 1.9-.5 3.3-2 1.3-1.5 2.1-2 1.7-1.2-.6 1.1-.5 1.2.4.4.7-.6 1.3-2 1.4-3.2.1-1.7.4-1.9 1.6-.9 1.2 1 1.4.9.8-.5-.3-1-.3-1.7.2-1.5.8.2 2.2-1 11.7-10.1 3.1-2.8 5.9-5.2 6.4-5.2s1-.4 1.2-1c.4-1.2 7.8-2 7.8-.8 0 .5.5.6 1.2.2.7-.4.8-.3.4.5-.4.6 0 1.4.9 1.7 1.3.6 1.4.8.3 1.5-.7.5-.8.9-.2.9.6 0 1 1.2.8 2.7-.1 1.6-.3 2.8-.4 2.8-.1 0-.4 1.8-.6 4-.3 2.2-.9 4.2-1.5 4.3-.6.3-.5 1 .3 2 1 1.2 1 1.4 0 .8-.8-.5-1.4.2-1.8 2.3-.4 1.7-.9 2.9-1.3 2.7-.3-.2-.7.6-.8 1.7-.3 3.4-.8 6.1-1.4 7.2-.3.6-.5 1.9-.5 3 .1 1.1-.3 2.3-.8 2.7-.8.5-1 1.5-1.5 6.1-.1.5-.6.5-1.2.1-.8-.5-.9-.2-.1 1.2.7 1.3.6 2.4-.7 4.3-1.3 2.1-1.3 2.4-.1 1.7.8-.4.6 0-.4.8-1.2.9-1.4 1.6-.7 1.6.8 0 .7.5-.4 1.6-.9.9-1.4 2.3-1.1 3 .3.8.1 1.4-.4 1.4s-.7.7-.4 1.5c.4.8.1 1.5-.5 1.5s-1.1 1.3-1.1 3c0 1.6-.4 3-.9 3s-.8 1.1-.7 2.4c.2 1.9-.1 2.3-1.3 1.8-1.4-.5-1.4-.3-.2 1.1 1 1.3 1 1.7.1 1.7-.8 0-1.1 1-.8 3 .3 2.3.2 2.7-.8 1.9-.9-.8-1.2-.4-1 1.5.2 1.5-.1 2.6-.6 2.6s-.7.4-.3.9c.3.5-.2 1.6-1 2.5-1.1 1-1.2 1.7-.4 2.2.8.5.7.9-.2 1.4-.7.5-1.4 1.6-1.6 2.4-.7 3.5-.9 4.1-1.6 5.3-.5.8-.3 1.3.5 1.4.7 0 .4.4-.7.9s-1.5.9-.9.9c.6.1 1.1.8 1.1 1.6 0 1-.4 1.2-1.2.5-.8-.6-1.1-.1-1 1.8.1 1.5-.3 3.3-.8 3.9-.5.7-.6 1.3-.1 1.3s.3.4-.5.9c-1.3.8-1.3 1.2 0 2.7.8 1 .9 1.5.2 1.1-1.2-.8-3.7 4.9-2.7 6.4.3.5 0 .9-.6.9-.7 0-1 .7-.6 1.5.3.8.1 1.5-.3 1.5-.5 0-.8 1.5-.7 3.4.1 2.3-.3 3.2-1.1 2.9-1.6-.6-1.6.2-.3 2.7.8 1.6.7 1.8-.4 1.4-1.1-.4-1.4 0-1.1 1.5.2 1.2-.1 2.1-.6 2.1-.6 0-.8.4-.4.9.3.5.1 1.3-.5 1.6-.8.5-.8 1.1 0 2 .7.9.6 1.6-.5 2.5-.9.7-1.3 2.1-1 3.1.4 1.1.2 1.9-.4 1.9-.6 0-1.1.5-1.1 1.1 0 .5.4.7 1 .4.6-.3.7.1.4.9-.3.9-1 1.4-1.4 1.1-.4-.3-.7.9-.6 2.5.1 1.7-.2 3-.7 3-.5 0-.7.7-.4 1.5.4.8.2 1.7-.4 2.1-.6.3-.8 1.2-.5 2 .3.8 0 1.4-.6 1.4s-.5.6.3 1.7c.8.9.9 1.4.3 1-.7-.4-1.5 0-1.8.9-.4 1-.2 1.3.7.8.9-.6.9-.4-.1.8-.9 1.2-1 1.8-.2 2.3.8.5.5 1.3-.9 2.6-2.2 2.1-2.8 3.5-1.1 2.4.6-.3 1-.2 1 .4 0 .5-.5 1.3-1 1.6-.6.4-.8 1.1-.5 1.6.4.5.2.9-.2.9-.5 0-.9 1.2-.8 2.7 0 1.6-.3 3.1-.8 3.4-.4.3-.9 2.2-1 4.2-.1 2.1-.6 3.7-1.2 3.7-.5 0-.3.5.5 1 1.2.8 1.2 1 .1 1-.8 0-1.1.7-.8 2 .3 1.1.1 2-.4 2-.4 0-.5.7-.2 1.7.4.9.2 1.4-.3 1.1-.5-.4-.9.4-.9 1.5-.1 1.2-.4 3.5-.8 5-.6 2.2-.5 2.7.5 2.1.7-.4.5.2-.5 1.3-1.1 1.3-1.4 2.3-.8 2.7.6.4.5 1.6-.4 3.3-1.1 2.1-1.2 3-.2 4.2 1 1.2.9 1.3-.2.6-1.1-.6-1.3-.4-.8.8.3 1 .2 1.7-.3 1.7-1.2 0-.9 2.2.5 3.2.6.5.5.8-.3.8-.7 0-1 .4-.7 1 .3.5.2 1-.4 1-.6 0-.6 1.1-.1 3 .5 1.7.5 2.8 0 2.5-1.3-.8-2 2.1-.7 3.4.8.8.7 1.1-.4 1.1s-1.2.2 0 .9c.9.6 1 1.1.2 1.5-.8.5-.8 1.3 0 2.8.6 1.1.7 1.8.1 1.4-.5-.3-.9.6-.9 1.9 0 1.4.3 2.5.8 2.5s.9.5.9 1.1c0 .5-.4.8-.8.5-1.2-.7-1 3.8.2 4.6.7.5.5.8-.4.8-1.3 0-1.3.1 0 1 1.2.8 1.2 1 .1 1-.9 0-.7.6.7 1.9 1.2 1 1.9 2.1 1.5 2.5-.3.3.1.6 1 .6 1 0 1.7.5 1.7 1.1 0 .5.4.8.9.5.4-.3 1.7.1 2.7.8 1.3 1 2.3 1.1 3.1.4.9-.7 1.3-.7 1.3.3s.3 1 1.2.1c.7-.7 2-1.2 3-1.2s1.8-.5 1.8-1.2c0-.6.3-.9.6-.5.3.3 2.5-1.3 4.7-3.6 2.3-2.3 4.5-4.1 5-3.9.5.1.6-.1.3-.6s.4-1.9 1.5-3.1c1.8-1.9 1.9-2.4.7-3.9s-1.1-1.6.5-.3c1.5 1.2 1.8 1 2.8-1.8.6-1.7 1.5-2.9 1.9-2.6 1.4.8 2.1-2.8.8-3.7-.9-.6-.6-.7.9-.3 1.2.3 2.5.1 2.9-.6.5-.8.3-.9-.7-.4-1.1.7-1.1.5.1-1.1.8-1 2.1-2.3 2.8-2.7.6-.4 1.2-1.3 1.2-1.8 0-.6.7-1.7 1.5-2.6.8-.8 1.2-1.9.9-2.5-.4-.6-.2-.8.3-.5.6.4 2.3-1.8 3.9-5.1 1.5-3.1 3.4-6.2 4.2-6.8.8-.6 1.2-1.6.8-2.2-.4-.7-.2-1.2.4-1.2.6 0 .8-.5.5-1-.3-.6-.1-1 .5-1s.9-.4.6-.9c-.3-.5.1-1.2 1-1.5.9-.4 1.4-.9 1.1-1.3-.4-.3.3-1.4 1.5-2.4 1.1-1.1 1.7-1.9 1.2-1.9s0-.7 1-1.5c1.1-.8 1.6-1.5 1.1-1.5-.4 0 .2-.9 1.5-2s1.9-2 1.5-2c-.5 0 0-.9 1.1-2 2.9-2.9 4.4-4.8 4.4-5.6 0-.4.6-1.5 1.4-2.3 2.7-3 5.6-9.2 5-10.4-.4-.7-.4-.9.1-.5.8.8 3.3-2 5.5-6.1 1-1.9 1-2.2-.2-1.6-.7.5-.4-.1.7-1.2 1.1-1.1 2.3-1.9 2.8-1.6.4.2.7-.3.7-1.1 0-.9.5-1.6 1-1.6.6 0 1-.5 1-1.1 0-.5-.6-.7-1.2-.3-.7.4-.4-.2.7-1.3s2.4-1.8 2.9-1.5c.5.3.6 0 .3-.5-.4-.6 0-1.6.8-2.3.8-.7 1.5-1.9 1.5-2.6 0-.8.4-1.4.8-1.4.5 0 .9-.7 1-1.5.1-.8.3-2.2.4-3 .1-.8.5-1.2.9-.9.4.2 1-.5 1.4-1.6.3-1.1 1-2 1.5-2s.7-.7.4-1.5c-.4-.8.1-1.7 1-2.1.9-.3 1.3-1 1-1.5-.3-.5 0-.9.6-.9s.9-.4.6-.9c-.3-.5.1-1.2 1-1.5.9-.4 1.4-1.3 1-2.2-.3-.9-.2-1.2.5-.9.6.4 1.3-.2 1.6-1.4.3-1.2.9-2.1 1.4-2.1.5 0 .9-.9.9-2.1 0-1.1.4-1.8.9-1.5.5.3 1.2-.5 1.5-1.9.4-1.4 1.1-2.5 1.7-2.5.6 0 .7-.5.4-1-.3-.6.1-1 .9-1 1 0 1.3-.6.9-1.7-.4-1-.2-1.4.4-1 .6.4 1.4-.4 1.7-1.8.4-1.4 1.1-2.5 1.7-2.5.6 0 .7-.5.4-1-.3-.6-.1-1 .5-1 .7 0 .9-.7.6-1.6-.3-.8-.2-1.2.4-.9.6.3 1 .1 1-.5s.4-.9.8-.6c.4.2.9-.5.9-1.6.1-1.1 1-2.8 2-3.8 2.7-2.6 5.4-6 4.7-6-.3 0 .6-1.1 2-2.4 1.5-1.3 2.6-2.9 2.6-3.5 0-.7.5-.9 1.2-.5.8.5.9.2.4-1.2-.4-1-.4-1.5 0-1.2.7.7 7.9-6.8 7.9-8.2 0-.4 1.2-1.9 2.6-3.2 1.4-1.3 2.3-3 2.1-3.7-.3-.8 0-1.1.5-.8.5.3 1.7-.7 2.7-2.4.9-1.6 2.1-2.9 2.7-2.9.5 0 .9-.5.9-1 0-1.7 5.7-9 6.5-8.2.3.4.5.2.3-.4-.4-1.6 4.1-7.6 5.2-6.9.6.3.7-.1.4-.9-.3-.9-.1-1.6.6-1.6.6 0 .8-.5.5-1-.3-.6.1-1 .9-1s2-.9 2.6-2c.6-1.2 1.6-1.8 2.3-1.4.7.4.9.4.5-.1-1.1-1.2 1.1-4.7 2.5-3.8.7.4.6 0-.2-1-1.2-1.5-1.2-1.7.4-1.1 1.4.6 1.6.4 1-.6-.6-1-.4-1.2 1.1-.6 1 .4 1.5.4 1.1 0-1-1.1 1.3-3.5 2.7-2.7.6.3.8.3.4-.2-.4-.4.4-1.9 1.8-3.2 1.4-1.2 2.2-2.3 1.9-2.3-.4 0 1.2-1.8 3.5-4s3.8-4 3.3-4c-.4-.1.7-.7 2.5-1.5 1.7-.8 3.2-1.9 3.2-2.6 0-.6.7-.9 1.5-.5.8.3 1.5.1 1.5-.4 0-1.7 6.4 0 8.5 2.2 2.1 2.4 5.1 8.3 3.7 7.4-.4-.2-.8.4-.8 1.4 0 1 .4 1.6.8 1.4.4-.3.8-.1.8.5 0 .5-.5 1.3-1.1 1.7-.8.4-.7.9.2 1.5 1 .6 1 .9.2.9-.6 0-1 .9-.8 2 .2 1.1 0 2-.5 2-.4 0-.7 1.1-.5 2.5.1 1.4-.1 2.5-.4 2.5-1.4 0-2.8 4.8-1.8 6.5.5 1 .6 1.5.1 1.2-.5-.3-1.4.6-2.1 1.9-.8 1.7-.8 2.4 0 2.4.7 0 .7.4-.1 1.2-.7.7-1.2 2-1.2 3.1 0 1-.4 1.6-.9 1.2-.6-.3-.8.3-.6 1.4.2 1.1-.3 2.2-1.2 2.5-.8.4-1.3 1.3-.9 2.1.3.8.1 1.5-.5 1.5s-.8.4-.5.9c1.1 1.6-.5 4-2.2 3.4-1.2-.3-1.3-.2-.5.4 1 .7 1 1.6 0 4.4-.6 1.8-1.6 3.7-2.1 4-.5.4-.5 1.2-.2 1.8.4.6.3 1.1-.3 1.1s-.8.7-.5 1.5c.4.8.2 1.5-.4 1.5-1 0-2.5 3.7-2.3 5.7.1.7-.3 1.3-1 1.3-.6 0-.8.7-.5 1.6.4 1 .2 1.3-.6.8s-.9-.2-.5.9c.4 1 .2 1.7-.4 1.7-.6 0-.9.7-.5 1.5.3.8 0 1.5-.5 1.5-.6 0-.9.9-.6 2 .3 1.1.1 2-.5 2-.5 0-.6.4-.3 1 .3.5.1 1-.4 1-.6 0-1.1 1.1-1.1 2.5s-.5 2.5-1.1 2.5c-.6 0-.9.8-.7 1.8.3 1-.2 2.4-.9 3.1-1.3 1.1-1.3 1.5-.1 2.2 1 .6 1 .9.1.9-.7 0-1.3.7-1.3 1.6 0 .8-.4 1.3-.8 1-.4-.3-.8.5-.9 1.7-.1 5-.3 5.8-1.5 5.1-.6-.4-.8-.3-.5.3.9 1.4-1.1 7.2-3.2 9.7-.9 1.1-1 1.6-.4 1.2.9-.5 1.1-.2.7.8-.3.9-1.1 1.6-1.8 1.6s-.6.3.2.9c1.1.7 1.1.9-.1 1.4-1 .4-1.3 1.3-1 2.8.4 1.4.2 2-.4 1.6-1-.6-2.8 4.6-2.4 6.7.1.4-.2 1.3-.7 2-1 1.2-2.6 6.7-2.4 7.8.1.5-.3.8-.8.8-.6 0-1 .8-1 1.7 0 1-.7 3.1-1.5 4.7-.9 1.6-1.4 3.5-1.1 4.2.3.7-.2 1.5-.9 1.8-.8.3-1.2 1.2-.9 2.1.3.8.2 1.5-.4 1.5-.6 0-.9 1.1-.8 2.5.2 1.4-.3 3-1 3.6-.8.6-1.4 2-1.4 3 0 1.1-.4 1.9-.9 1.9-.6 0-.8.9-.6 2 .2 1.1 0 2-.6 2-.5 0-.8.3-.8.7.1.5 0 1.1-.1 1.5-.1.5-.3 1.1-.5 1.5-.1.5-.8 2.1-1.5 3.8-.7 1.6-1.3 3.3-1.2 3.7.1.5-.3.8-.9.8-.6 0-.9.6-.6 1.4.3.8.2 1.6-.3 1.8-.5.2-1.1 1.6-1.4 3.3-.2 1.6-.7 3.8-1.1 4.7-.4.9-.4 2.2 0 2.8.3.5.1 1-.4 1-.6 0-1.1.9-1.1 1.9 0 1.1-.7 2.6-1.5 3.4-.8.8-1.1 1.7-.8 2 .3.4.2 1.4-.2 2.4-1.2 2.6-1.2 2.5-2 6-.4 1.8-1.1 3.3-1.6 3.3-.4 0-.8.9-.8 2-.1 1.1-.1 2.9-.2 4 0 1.2-.5 1.8-1.1 1.4-.7-.5-.9.2-.6 2 .3 1.4.1 2.9-.5 3.3-.6.4-.7.1-.2-.8.5-.8.4-1.1 0-.6-.5.4-1 1.7-1.2 3-.2 1.2-.5 3.1-.7 4.2-.2 1.1-.4 2.4-.5 2.8 0 .5-.5.6-.9.3-.4-.2-.8.3-.9 1.2-.3 4.2-.8 6.2-1.4 6.2-.8 0-2.3 5.9-2 7.9.2.8-.2 1-1 .6-.8-.6-.9-.3-.2 1 .7 1.2.6 2.6-.3 4.4-.9 1.7-1 2.7-.3 3.2.8.4.8.9.1 1.3-.6.3-.8 1.5-.5 2.6.3 1.1 1 1.7 1.7 1.3.6-.4.5.1-.3 1-1 1.3-1 1.7-.1 1.7s.9.4-.1 1.7c-1 1.1-1 1.4-.1.9.7-.4 1.2-.1 1.2.8s.5 1.6 1 1.6c.6 0 1 .5 1 1.1 0 .6.7 1.7 1.5 2.5.8.9 1.5 1.3 1.5.9s.7.1 1.6.9c.8.9 2 1.4 2.5 1.1.5-.4.9 0 .9.7 0 .8.3.9.8.3.4-.6 1.7-1 3-.9 1.2.1 2.5-.3 2.8-.8.4-.6 1-.5 1.5.3.7 1.1.9 1 .9-.4 0-.9.5-1.7 1.1-1.7.5 0 .7.6.4 1.2-.4.7.2.2 1.3-1.1 1.1-1.4 1.9-3.3 1.7-4.3-.2-1 0-1.6.4-1.3.5.2 1.1-.4 1.4-1.5.3-1.3.1-1.8-.6-1.3-.6.3-.3-.4.6-1.6.8-1.3 1.3-3 1-3.7-.3-.8-.1-1.4.4-1.4s.9-.8 1-1.8c.2-2 .7-4 1.7-6.4.4-.9.5-2.1.2-2.6-.3-.6.1-1.3.9-1.6 1.3-.5 1.4-1 .4-2.8-.6-1.3-.8-2-.3-1.5 1.3 1.2 3.3-4.6 2.1-6.1-.7-.9-.6-1.1.5-.7 1.1.4 1.4 0 1.3-1.7-.1-1.3.2-2.8.7-3.4.9-1.3 1.9-4.8 2.1-7.7.1-.9.5-1.7 1-1.7.4 0 .5-.5.2-1-.3-.6-.2-1 .2-1 .5 0 1-.8 1.1-1.8.4-4.5.9-6.4 1.8-7 .5-.4.9-1.4.9-2.2-.1-.8.2-2 .6-2.5.3-.6.5-2 .4-3.2-.1-1.2.2-2 .6-1.7.4.2 1 0 1.4-.6.3-.5 0-1-.7-1-1 0-1-.2.1-.9.7-.5 1-1.4.7-2-.4-.6-.2-1.1.4-1.1.7 0 1-.7.6-1.5-.3-.8-.1-1.5.4-1.5.6 0 .9-.3.9-.8-.3-1.9.2-4.3.9-3.9.4.3.8-1.1.9-3.1.1-2 .7-3.8 1.3-4 .5-.2.8-.8.4-1.3-.3-.5-.1-.9.4-.9.6 0 .8-.9.5-2-.3-1.1 0-2 .6-2s.8-.7.4-1.7c-.5-1.2-.3-1.4.7-.8.9.5 1.1.4.6-.3-.4-.6-.2-2.1.5-3.3.8-1.6.8-2 0-1.4-.6.3-.2-1 .9-3s1.8-4 1.5-4.6c-.4-.5-.1-.9.5-.9s.8-.5.5-1c-.3-.6 0-1 .7-1 1 0 1-.2-.1-.9-1-.7-1-1-.1-1.3.7-.2 1.4-1.3 1.5-2.4.2-1.8.5-2.7 2.2-7.2.3-.9.5-2 .5-2.5-.1-.4.2-.7.8-.7.5 0 .7-.7.4-1.5-.4-.8-.1-1.5.6-1.5 1 0 1-.3 0-1.5s-.9-1.6.4-2.1c1-.4 1.5-1.3 1.2-2-.3-.8-.1-1.4.5-1.4s.9-.7.5-1.5c-.3-.8-.1-1.5.5-1.5s.8-.4.4-.9c-.3-.5 0-1.3.6-1.6.5-.4.8-1.3.5-2-.3-.8.1-1.9.9-2.5.8-.6 1.1-1.8.8-2.6-.3-.8-.1-1.4.4-1.4s1-1.2 1.1-2.6c.1-1.4.5-3.1.9-3.7.4-.7.8-1.7.8-2.2.1-.6.7-2.4 1.4-4 .7-1.7 1.3-3.8 1.4-4.8.1-.9.5-1.7 1-1.7.4 0 .6-.4.2-.9-.3-.5 0-1.3.6-1.7.8-.4.7-.9-.2-1.5-.9-.5-1-.9-.2-.9.6 0 1.6-2.3 2.3-5 .7-2.8 1.7-5 2.3-5 .7 0 .5-.5-.3-1-1.1-.7-1.1-1-.2-1 .7 0 1-.5.7-1-.3-.6-.2-1 .4-1 .6 0 .8-.7.5-1.5-.4-.8-.2-1.5.4-1.5.5 0 .9-.8.9-1.8 0-3.6.3-4.3 1.6-3.6.8.5.8.2-.2-.9-.9-1.1-1-1.7-.2-1.7.6 0 1.1-.9 1.1-1.9 0-1.1.4-2.2.9-2.5.5-.3.7-1.5.4-2.6-.3-1.1 0-2 .6-2s1-.3 1-.8c-.4-1.7 1.4-9.2 2.2-9.2.4 0 .6-.9.4-2-.2-1.1 0-2 .6-2 .5 0 .9-.5.9-1.1 0-.5-.5-.7-1.1-.4-.6.4-.5-.2.2-1.3.7-1.2 1.8-1.8 2.4-1.5.5.3.5 0-.2-.7-.9-1-.9-1.9.3-4.3 1-1.8 1.1-2.6.4-2.2-.7.4-.5-.4.4-1.7.9-1.4 1.3-2.8.9-3.1-.3-.4-.1-.7.7-.7 1 0 1-.4-.1-1.7-1.2-1.5-1.2-1.6.6-1 2 .7 2 .7.1-.8-1.8-1.4-1.9-1.5-.2-1.5 1.2 0 1.6-.5 1.3-1.5-.4-.8-.2-1.7.4-2.1.6-.4.5-1.2-.3-2.2-.7-1-.8-1.4-.4-1 1.4 1.2 3.5-3.4 2.3-5-.6-.8-.6-1.2.2-1.2.6 0 1.1-1.3 1.1-2.8 0-1.6.3-3.2.7-3.5.4-.4.8-2.6 1-4.9.3-2.3.9-5 1.4-6 .7-1.3.6-1.8-.3-1.8-.9 0-1-.3-.2-.8.6-.4 1-1.7.9-2.9-.1-1.2.2-2 .7-1.7.5.3.7-.6.4-2-.3-1.4-.2-2.6.2-2.6 1 0 .7-12.3-.3-13.9-.5-1-.4-1.2.3-.7 1.4.8 1.4 0 .3-2.9-.5-1.1-.4-2.8.1-3.9.7-1.3.7-1.6-.1-1.2-.6.4-1.1 0-1.1-.8 0-.9-.6-1.6-1.2-1.6-.9 0-.8-.3.2-1 1.2-.8 1.2-1-.3-1.6-.9-.3-1.5-.9-1.3-1.3.2-.3-1.1-1.6-3-2.9-1.9-1.2-3.4-1.7-3.4-1.1 0 .6-.7.4-1.5-.5-1.1-1.1-2.3-1.2-4.5-.6-1.7.5-3 .6-3 .2 0-.3-.5-.1-1.2.6s-2.1 1.2-3.3 1.2c-1.1 0-3.1.9-4.5 2s-3 2-3.6 2c-.6 0-2.2 1-3.5 2.2-1.4 1.3-2.9 2.5-3.4 2.8-.6.2-1.8 1.1-2.8 2-1 .8-2 1.3-2.2 1-.3-.3-1.2.5-2 1.8-.9 1.2-2.1 2-2.6 1.6-.5-.3-.8-.1-.7.4.2.6-.1 1-.5 1.1-.4 0-2.6 1.9-4.7 4.1-2.2 2.3-4 3.8-4 3.3 0-.4-.9.5-2 2.2-1.1 1.6-2 2.7-2 2.3 0-.3-2.7 2-6.1 5.3-3.3 3.2-5.8 6.3-5.4 6.8.3.6-.4.8-1.5.6-1.1-.2-1.8 0-1.5.6.4.5.1.9-.6.9s-.9.3-.6.7c.4.3-.2 1.2-1.3 2s-2 2.2-2 3.1c0 1.5-.2 1.5-1 .2s-1-1.3-1 .2c0 .9-1 2.4-2.2 3.2-1.2.9-1.8 1.6-1.3 1.6.6 0 .2.5-.7 1.1-1 .5-1.8 1.6-1.8 2.4 0 .8-.5 1.7-1.2 2.1-.7.5-.9.2-.4-.7.4-.8 0-.5-.8.5-.9 1.1-1.6 2.7-1.6 3.5 0 1.4-.1 1.4-1 .1-.9-1.3-1-1.3-1 0 0 .9-2.2 3.9-5 6.8-2.7 2.9-4.8 5.2-4.5 5.2.2 0-.7 1.2-2.1 2.7-1.4 1.5-2.2 3.3-2 4 .3.7.2 1.2-.2 1.1-.4-.2-2.2 1.2-4 3-1.8 1.7-3 3.2-2.7 3.2 1.4 0-2.7 5.9-4.5 6.5-1.1.3-1.9.9-1.8 1.3.3 1.5-1.5 4.2-2.3 3.6-.5-.3-.8-.2-.7.3.5 1.3-3.8 6.3-4.8 5.5-.5-.4-.2.1.5 1 1.2 1.6 1.1 1.8-.4 1.8-1.4 0-1.5.3-.6 1.4.9 1.1.8 1.4-.6 1.2-1.1 0-1.8.5-1.7 1.6.1 1-.3 1.6-1 1.5-.6-.1-1 .4-.9 1 .2.7-.5 1.3-1.5 1.3-1.3 0-1.4.2-.3.9 1.1.7.9 1-.8 1.6-1.1.3-2.1 1.3-2.1 2.1s-.4 1.4-1 1.4c-.5 0-.9.3-.8.7.4 1.3-2.8 5.3-3.6 4.6-.4-.4-.4 0 0 1 .4 1.1 0 1.9-1.1 2.3-1.3.5-1.4.9-.3 1.5 1 .7.9.9-.4.9-1 0-1.8.7-1.8 1.5s-.5 1.5-1.1 1.5c-.5 0-.7.4-.4 1 .3.5.2 1-.3 1s-1.7 1.6-2.6 3.5c-.9 1.9-2.2 3.5-2.8 3.5-.5 0-.7.7-.4 1.6.3.8.2 1.2-.4.9-.6-.3-1 0-1 .8 0 .7-.9 2.3-2 3.5-1.1 1.2-2 2.5-2 3s-.7 1.5-1.5 2.2c-.8.7-1.2 1.6-.9 2.1.3.5 0 .9-.7.9s-1 .3-.6.6c.3.3-.3 1.5-1.4 2.7-1 1.1-1.9 2.7-1.9 3.4 0 .7-.4 1.3-.9 1.3s-1.4 1.3-2.1 3c-.7 1.6-1.7 3-2.2 3-.5 0-.6.4-.3 1 .3.5.1 1-.4 1-.6 0-1.1.4-1.1.9 0 .6-1.3 3-3 5.4-1.6 2.5-3 4.9-3 5.5 0 .6-.6 1.3-1.2 1.5-1 .4-.9.8.2 1.6 1.3.9 1.3 1.1-.2 1.1-1 0-2.4 1.5-3.4 3.5-.9 1.9-2.1 3.5-2.6 3.5-.6 0-.8.7-.4 1.5.3.8 0 1.8-.7 2.2-.7.5-2.1 2.5-3.2 4.5-1.1 2.1-2.4 3.8-2.8 3.8-.5 0-.3.8.4 1.7 1.1 1.3 1.1 1.5.1.9-.9-.5-1.5-.1-1.9 1.3-.3 1.2-.9 2.1-1.3 2.1s-1.1 1.1-1.4 2.5c-.4 1.4-1.1 2.5-1.7 2.5-.6 0-.7.4-.4 1 .3.5.1 1-.5 1s-.8.5-.5 1c.3.6-.1 1.3-1 1.6-1.2.5-1.3.9-.4 2 1 1.2.8 1.3-.6.8-1.1-.5-1.6-.4-1.2.3.3.5-.3 2-1.4 3.1-1.1 1.2-1.7 2.2-1.4 2.2.4 0-.1.7-1 1.6-.9.9-1.4 2.3-1.1 3.1.3.8.2 1.2-.3.9-.5-.3-1.4.7-1.9 2.3-.6 1.6-2.4 3.5-4.3 4.5-3.6 1.8-3.7 1.8-4.2-1-.1-1-.6-2.5-1-3.2-.5-.6-.4-1.2 0-1.2.8 0 1.2-1.5 1.5-5.8.1-.6.5-1.2 1-1.2.4 0 .8-.5.8-1.1 0-.5-.4-.7-1-.4-.6.3-.7-.1-.4-.9.3-.9 1.1-1.6 1.8-1.6.6 0 .4-.5-.4-1-1.1-.7-1.1-1-.2-1 .7 0 1.1-.4.7-.9-.3-.5 0-1.3.5-1.6.7-.5.5-1.2-.7-2.1-1.3-1.1-1.4-1.4-.3-1.2.9.2 1.4-.4 1.4-1.5-.1-.9.2-1.7.7-1.7.4 0 .6-.9.4-2.1-.3-1.6 0-1.9 1.2-1.4 1.4.5 1.3.2-.3-1.6-1-1.2-1.4-2-.8-1.6.5.3 1.5-.7 2.1-2.4.9-2.2.8-2.7 0-2.2-.7.4-.6-.1.2-1 .7-.9 1-1.7.5-1.7s0-.7 1-1.5c1.1-.8 1.4-1.5.8-1.5-1 0-1-.5-.2-2 .6-1.1.7-2 .3-2-.4 0-.1-.5.7-1 1-.6 1.1-1 .3-1-.7 0-1.3-.5-1.3-1.1 0-.5.5-.7 1.2-.3.8.5.9.2.5-.9-.3-.9-.2-1.9.4-2.2.5-.4.7-1.1.4-1.6-.4-.5-.3-.9.2-.9.8 0 1.3-2.5 1.6-8.7.1-1.7.6-3.1 1.1-3 .8.2 1.2-1.1 2-6.3.2-1.4.8-2.4 1.3-2.3.4.1.8-1.5.8-3.5 0-2.5-.5-3.6-1.3-3.4-.8.1-1.1-.2-.7-.8.5-.8 1.1-.8 2 0 1.5 1.3 2.4.3 2-2.3-.2-.9.1-1.7.6-1.7s.9-1 .9-2.3c0-1.3.6-2.9 1.3-3.6 1-1.1.9-1.2-.2-.6-.9.5-.8-.1.4-1.8.9-1.5 1.4-3.1 1-3.7-.3-.5 0-1.3.8-1.6.9-.3 1.3-1.3 1-2.5-.3-1 0-1.9.6-1.9.5 0 .8-.7.5-1.5-.4-.8-.2-1.5.4-1.5.5 0 .8-1.1.7-2.5-.2-1.4.1-2.5.6-2.5.6 0 .7-.5.4-1-.3-.6-.2-1 .4-1 .5 0 .8-.9.6-2-.2-1.1.1-2 .6-2 .6 0 .8-.4.4-.9-.3-.5-.1-1.2.5-1.6.6-.4.8-1 .5-1.5-.3-.5-.1-1.1.5-1.5.5-.3 1-1.7 1-3.1 0-1.3.5-2.4 1.1-2.4.6 0 .9-.7.6-1.5-.4-.8-.2-1.7.3-2 .5-.3.7-1.6.4-3-.2-1.3 0-2.7.6-3 .7-.4.6-1.3-.1-2.7-.9-1.6-.8-1.9.1-1.3 1 .6 1.2.1.8-1.9-.3-1.4-.2-2.6.2-2.6.8 0 2.5-4.9 2.1-6.4-.1-.4.3-1.4 1-2.2.6-.8.9-2.1.5-2.9-.3-.9-.2-1.4.3-1.1.5.3 1.1-.1 1.5-.9.3-.8 0-1.7-.6-2.1-.7-.5-.6-1.1.6-1.9.9-.7 1.6-1.7 1.5-2.1-.4-2.6.2-4.5 1.4-3.8.9.6.9.4-.1-.8-.7-.9-.9-1.8-.3-2 .5-.1 1.1-1 1.3-1.8.2-.8.8-1.8 1.3-2.2.6-.4.1-.8-1-.8-1.8-.1-1.8-.2.3-1.1 1.3-.5 2.1-1.3 1.8-1.8-.3-.5.2-1.2 1.1-1.5 1.2-.5 1.3-1 .5-1.8-1.1-1.1-.5-3.9 1.2-5 .7-.5.6-.8-.3-.8-1.1 0-.9-.5.5-2.2 1.2-1.3 1.3-1.8.4-1.3-1.2.7-1.3.6-.4-.6.5-.8 1-2.8.9-4.6-.1-1.8.3-3 .7-2.7.5.3.7-.6.4-2-.3-1.4-.1-2.6.3-2.6s.8-1.9 1-4.2c.1-2.3.7-4.6 1.4-5 .9-.6.9-1-.2-1.7-1.2-.8-1.2-1.2.2-2.5.9-.9 1.4-2.5 1.2-3.6-.2-1.1 0-2 .4-2 .5 0 1.1-1.5 1.3-3.4.2-2.2 0-3.2-.7-2.8-.5.3-.4-.2.4-1.1 1.1-1.4 1.1-1.7 0-1.7s-1.1-.3.1-1.1c.9-.6 1.1-1.2.5-1.5-.6-.2-.9-2.2-.7-4.4.3-2.6 0-4-.7-4s-1.1-.6-1-1.3c.3-2.7-.1-3.8-1.3-3.1-.9.5-.9.2.1-.9 1-1.2 1-1.7.1-1.7-.6 0-1-.5-.8-1.2.5-1.4-2.8-5-5.3-6-.9-.4-2.1-.2-2.6.3-.6.6-1.4.4-2.2-.5-1-1.2-1.8-1.3-3.3-.5-1.3.7-2.3.7-3.2 0-1-.8-1.8-.6-3.1.9-1.4 1.6-2.1 1.7-3.2.8-.9-.7-1.7-.8-2.1-.2-.4.5-2.3 1-4.2 1.2-1.9.1-3.7.7-3.8 1.2-.2.6-.7.8-1.2.5-.5-.3-1.6.2-2.4 1.1-.9.9-1.6 1.1-1.6.4 0-.6-2 .3-4.4 2-2.5 1.6-4.9 3-5.5 3-.6 0-1.1.4-1.1 1 0 .5-.7 1-1.6 1-.8 0-1.2.4-.9 1 .3.5.1 1-.5 1s-2 .9-3.2 2c-1.2 1.1-2.8 2-3.5 2-1.6 0-1.7 1.1-.3 2.8.7.8.7.9-.1.3-1.1-.9-4.6 1-9.3 5.1-1.9 1.7-3.2 2.2-4.9 1.9-.5-.1-.5.3-.2.9.4.7-.2 1.4-1.4 1.7-1.1.3-1.8.9-1.5 1.4.3.5-.2.9-1.1.9-1.1 0-1.5.5-1.1 1.6.3.8.2 1.2-.4.9-.5-.3-1.5.2-2.2 1-3.1 3.8-5.2 5.4-6.1 4.8-.6-.3-.7-.2-.4.4.3.5-.3 1.6-1.4 2.3-1 .8-1.9 2-1.9 2.6 0 1.4-15.2 17-16.2 16.7-.4-.2-.4.5-.1 1.4.4 1.1.3 1.4-.5.9-.8-.4-1.2 0-1.2 1.1 0 1.5-.2 1.6-1 .3-.6-1-1-1.1-1-.3 0 .7-.8 2.2-1.7 3.2-3.3 3.6-4.4 5.1-3.8 5.1.4 0-.7 1.4-2.4 3.1-1.7 1.7-2.9 3.5-2.6 4 .4.5-.1.6-.9.3-.9-.3-1.6-.2-1.6.3 0 1.5-4.7 6.3-5.4 5.6-.3-.4-.6.2-.6 1.3s-.9 2.5-2 3.2c-1.1.7-2 1.9-2 2.7 0 .8-.4 1.5-1 1.5-.5 0-1 .7-1 1.6 0 .8-.3 1.3-.7 1.1-.5-.2-1.6.4-2.5 1.5-1 1-1.6 1.8-1.3 1.8.3 0-.3.8-1.2 1.8-1 1.1-2.2 1.7-2.7 1.4-.5-.3-.7-.1-.3.4.3.5-.1 1.8-.9 2.9-.8 1-1.4 1.5-1.4 1s-.6 0-1.4 1c-.8 1.1-1.2 2.3-1 2.7.3.5-.1.8-.9.8s-1.8 1.1-2.1 2.4c-.3 1.4-1.5 2.8-2.7 3.1-1.7.6-1.8.9-.7 2.3.7.9.8 1.3.2.9-.9-.5-4.4 2.5-4.4 3.9 0 .2-.5 1-1 1.7-4.1 4.8-4.9 6.1-4.5 6.8.3.4 0 1.1-.6 1.5-.8.5-.9.3-.4-.6.5-.9.4-1.1-.3-.6-.7.4-1.2 1.4-1.2 2.2 0 .8-.4 1.2-1 .9-.6-.3-.7.1-.4.9.3.9.1 1.6-.5 1.6s-1.1.7-1.1 1.5-.4 1.5-1 1.5c-.5 0-1 .6-1 1.4 0 .8-.7 1.6-1.5 2-.8.3-1.5.9-1.4 1.3.4 2.3-.2 4.3-1.1 3.8-.5-.3-1.2.6-1.6 2-.3 1.4-1.1 2.2-1.7 1.8-.6-.4-.8.2-.5 1.5.4 1.2.2 2-.3 1.6-.5-.3-.9.2-.9 1.1 0 .9-.4 1.3-1 1-.5-.3-1 .3-1 1.4 0 1.2-.9 2.6-1.9 3.3-1 .6-1.7 1.7-1.4 2.4.2.6-.4 1.8-1.4 2.5-1 .8-1.9 2.1-2.1 2.9-.2.8-.8 1.6-1.3 1.8-.5.2-.9.8-.9 1.4 0 .5-1.4 2.3-3.1 3.9-1.7 1.6-2.8 2.9-2.5 2.9.4 0-.5 1.2-1.9 2.6-1.4 1.4-2.2 3.1-1.9 3.7.4.7.4.9-.1.5-.9-.8-3.5 1.5-3.5 3.1 0 .6-.4 1.1-1 1.1-.5 0-1 .7-1 1.6 0 .8-.4 1.2-1 .9-.5-.3-1 0-1 .8 0 .7-.9 2.3-2 3.5-1.1 1.2-2 2.8-2 3.7 0 .9-.4 1.3-1 1-.5-.3-1 .1-1 .9 0 .9-.5 1.6-1.2 1.6-.6 0-.9.3-.5.6.3.3-.5 1.8-1.9 3.2-1.3 1.5-2.4 3.5-2.4 4.5s-.4 1.6-.9 1.3c-.5-.3-1.2.5-1.5 1.9-.4 1.4-1.3 2.5-2.2 2.5-.8 0-1.3.4-.9 1 .3.5-.1 1.7-1 2.7-.8 1-1.5 2.2-1.4 2.6 0 .5-.8 1.6-1.8 2.5-1 .9-2.7 3.4-3.8 5.4-1 2-2.3 3.5-2.7 3.2-.4-.3-.8.4-.8 1.5s-.6 2.4-1.3 2.8c-.7.4-2.1 2.5-3.1 4.6-1 2.2-2.6 4.7-3.7 5.8-1 1-1.9 2.1-1.9 2.4v1.5c0 .5-.8 1-1.7 1-1.5 0-1.6.2-.3 1 1.2.8 1.2 1-.3 1.6-.9.3-1.4 1-1.1 1.5.3.5 0 .9-.5.9-.6 0-1.1.6-1.1 1.4 0 .8-.7 1.7-1.6 2-.8.3-1.3 1-1 1.4.3.5-.6 1.5-1.9 2.2-1.4.7-2.5 2.2-2.5 3.2s-.6 1.8-1.2 1.8c-1.3.1-5.8 6.4-5.8 8.1 0 .6-.4.7-1 .4-.5-.3-1-.1-1 .4 0 1-1.8 3.6-4.7 6.6-.7.7-.9 1.5-.6 1.9.4.3.1.6-.5.6-.7 0-1.2.8-1.2 1.7 0 .9-.3 1.3-.6 1-.6-.5-3.3 3-7.9 10.2-.5.9-1.6 2-2.3 2.4-.7.5-1 1.2-.7 1.7.3.5-.5 1.6-1.7 2.4-1.2.9-1.9 1.6-1.4 1.6s.3.7-.4 1.5c-.9 1-1.7 1.2-3 .5-.9-.5-2-.6-2.4-.3-.3.3-.6.1-.6-.5s-1-1.4-2.2-1.8c-1.2-.3-3.7-1.3-5.7-2.2-2-.9-3.9-1.5-4.3-1.4-.5.1-.8-.2-.8-.7 0-.5-1.3-1.2-3-1.6-1.6-.4-3.2-1.1-3.5-1.6-.4-.5-1.5-.9-2.6-.9-1 0-1.9-.3-1.9-.8 0-.4-1.5-1.3-3.2-2-1.8-.7-4.1-1.8-5.1-2.3-1.1-.6-2.1-.8-2.4-.5-.4.3-1.2-.2-2-1.2-.8-.9-1.1-1-.7-.2.5.8-.4.5-2-.8-1.6-1.2-3.5-2.2-4.2-2.2-.8 0-1.4-.4-1.4-.8 0-.5-.6-.9-1.2-.9-1.5 0-7.1-2.4-14-6-2.6-1.3-5-2.4-5.3-2.3-2.4.2-3.5-.2-3-1 .3-.6-.3-1-1.4-1-1.1 0-2.6-.7-3.5-1.5-.8-.8-2-1.5-2.6-1.5-2 0-11-5.7-10.2-6.4.4-.4.2-.6-.3-.4-1.5.4-7.5-2.3-7.5-3.5 0-.6-.3-.8-.6-.4-.7.7-6.5-2-7.4-3.4-.3-.5-1.5-1-2.6-1.2-1.1-.1-3.3-1.3-4.8-2.5-1.6-1.2-3.2-1.9-3.7-1.6-.5.3-.9-.2-.9-1.1 0-.9-.4-1.4-.9-1-.5.3-1.6 0-2.3-.7-2.1-1.9-4.9-3.7-8.8-5.4-1.9-.9-3.7-1.9-4-2.3-.3-.3-3.5-2.2-7.2-4-3.8-1.9-6.8-3.8-6.8-4.3s-.4-.6-1-.3c-.5.3-1 .2-1-.3 0-.6-1.1-1.3-2.5-1.6-1.4-.4-2.3-1.1-2-1.6.3-.6-.3-1-1.3-1-1.1 0-4.6-1.6-7.8-3.5-3.3-1.8-7.3-4.1-9-4.8-1.7-.8-3.5-2-3.8-2.6-.4-.6-1.5-1.1-2.5-1.1-.9 0-2.7-.9-3.8-1.9-1.2-1.1-2.4-1.7-2.7-1.4-.3.4-.6.1-.6-.5s-1-1.4-2.2-1.8c-2.7-.8-6.9-5-6-5.8.3-.4-.1-.4-.9-.1-.9.3-2.2-.1-2.9-1-.7-.8-1.8-1.5-2.4-1.5-.6 0-2-1.3-3.1-2.9-1-1.6-2.3-2.8-2.7-2.5-.4.3-1.4-.8-2.2-2.3-.8-1.5-1.5-2.5-1.6-2 0 .4-2.2-1.4-4.9-4-2.7-2.7-7.2-6.8-10.1-9.3-5.3-4.7-8.4-9.2-7.2-10.5.4-.5.2-.6-.3-.2-.6.3-1.7-.8-2.4-2.4-.7-1.6-1.6-2.7-1.9-2.5-.4.2-.8-.6-.8-1.7-.2-2.2-.6-3.9-1.7-6.7-2.4-6.4-2.7-8.4-1.4-9.8 1-1.3.9-1.4-.1-.8-1.2.7-1.2.5.2-8.9.2-1.1.4-2 .6-2 .1 0 .3-1.1.5-2.5 1-7.1 1.8-10.6 2.7-11.1.5-.3.9-.9.8-1.3-.1-.4 0-1.6.3-2.7.3-1 .5-2 .4-2.2-.2-.4 3.9-7.3 5.9-9.9 1.2-1.5 2.5-2.4 2.9-2 .5.4.5.2.2-.4-.3-.6.2-2 1.3-3.1 1-1.2 1.6-2.4 1.2-2.7-.3-.4.4-.9 1.6-1.3 1.2-.3 2-.8 1.7-1.2-.2-.4.8-2.1 2.3-3.8 1.5-1.7 3.8-4.6 5.2-6.4 1.4-1.8 3.7-4.6 5.2-6.1 1.5-1.6 2.7-3.1 2.7-3.4 0-1.1 2.9-3.3 3.6-2.6.4.4.6.2.5-.3-.5-2.2.1-3.5 1.5-3.5.8 0 1.4-.4 1.3-.9-.3-1 5.2-6.1 6.5-6.1.5 0 .5-.5.1-1.1-.4-.7-.1-1 .6-.7.8.2 3.1-1.3 5.1-3.3 2.1-2.1 3.9-3.5 4.2-3.3.3.3 1.4-.7 2.6-2.2 1.1-1.5 2.1-2.3 2.1-1.9 0 .4 1.6-.9 3.5-2.9 1.9-2.1 3.5-3.4 3.5-2.9 0 .4.4.3.8-.2 1.2-1.7 6.1-4.9 15.2-9.9 14.2-7.7 27.1-13.8 41.5-19.5 14-5.6 43.5-15.2 44.6-14.6.5.4.9.1.9-.6s.3-1 .6-.7c.3.3 2.9-.1 5.7-.8 2.9-.8 6-1.7 6.9-1.9.9-.2 2.6-.9 3.7-1.5 1.2-.6 2.1-.8 2.1-.6 0 .3 1.1.1 2.5-.4 2.8-1.1 2.8-1.1 17.7-4 5.8-1.1 11-2 11.5-1.9.4.1 1 .1 1.3 0 .3-.1 3.2-.4 6.5-.6 3.3-.3 6.9-.7 8.1-1 2.1-.5 12.6-1.5 20.4-2 2.5-.1 5.6-.7 7-1.2 1.4-.5 3.2-.9 4-.8.8.1 2.1-.3 2.7-.8.7-.5 2.2-.7 3.2-.4 1.5.3 1.8.1 1.4-1.1-.4-1-.2-1.3.5-.8 1.9 1.2 10-3.5 11.6-6.8 2.1-4.4 3-7 2.6-8.1-.4-1.6-1.1-6.9-1.1-8.7 0-1-.4-2-1-2.3-.5-.4-.9-1.5-.9-2.6 0-1-.4-1.9-.8-1.9-.5 0-1.5-1.2-2.3-2.7-3.2-6.3-19.3-19.5-21.3-17.6-.3.4-.6.2-.6-.3 0-.9-1.4-1.3-5.7-1.6-.7-.1-1.3-.6-1.3-1.2s-.4-.5-.9.2c-.6 1-1 1-2.1-.3-1-1.2-1.6-1.3-2.6-.4-.8.6-1.4.7-1.4.2 0-.5-1.6-.8-3.5-.8-2 .1-3.8-.2-4.1-.7-.3-.4-1.4-.4-2.4.2-1.2.6-2.1.6-2.5.1-.3-.5-1.8-.9-3.4-.9-1.5.1-3.3-.2-4-.6-.6-.4-1.1-.2-1.1.5s-.4.8-1.2.2c-.7-.5-2.3-.8-3.5-.7-1.3 0-2.3-.1-2.3-.5 0-.8-10.9-.5-11.7.2-.3.4-1.4.2-2.4-.4-1.4-.7-1.9-.6-1.9.2s-.4.8-1.3.1c-.7-.6-1.8-.7-2.6-.2zm318.6 109.5c0 .8-.4 1.2-.9.9-.5-.3-.6-1-.3-1.5.9-1.3 1.2-1.1 1.2.6zm6.4 24.2c1.3 1.6 1.2 1.7-.3.4-1-.7-1.8-1.5-1.8-1.7 0-.8.8-.3 2.1 1.3zM760.5 228c.3.5.1 1-.4 1-.6 0-1.1-.5-1.1-1 0-.6.2-1 .4-1 .3 0 .8.4 1.1 1zm-4.1 15.8c.3.5-.1.9-.9.9s-1.2-.4-.9-.9c.3-.4.7-.8.9-.8.2 0 .6.4.9.8zm9.6-.2c0 .8-1.9 1.3-2.4.6-.3-.5.1-.9.9-.9s1.5.2 1.5.3zm-1 7.8c0 .3-.4.8-1 1.1-.5.3-1 .1-1-.4 0-.6.5-1.1 1-1.1.6 0 1 .2 1 .4zm-3.9 4.3c1.3 1.6 1.2 1.7-.3.4-1-.7-1.8-1.5-1.8-1.7 0-.8.8-.3 2.1 1.3zM746 267.5c0 .2-.6.8-1.3 1.4-1 .8-1.4.7-1.4-.2 0-.8.6-1.4 1.4-1.4.7 0 1.3.1 1.3.2zm6.1 1.2c1.3 1.6 1.2 1.7-.3.4-1-.7-1.8-1.5-1.8-1.7 0-.8.8-.3 2.1 1.3zm.6 22.8c0 .8-.4 1.2-.9.9-.5-.3-.6-1-.3-1.5.9-1.3 1.2-1.1 1.2.6zM725.5 404c.3.6-.1.7-.9.4-1.8-.7-2.1-1.4-.7-1.4.6 0 1.3.4 1.6 1z"/><path d="M831.5 249.1c-.4.6-.5 1.2-.2 1.5.2.3.7-.2 1-1.1.7-1.7.1-2-.8-.4z"/></svg>