<svg xmlns="http://www.w3.org/2000/svg" width="100" height="100" viewBox="0 0 100 100" preserveAspectRatio="xMidYMid meet">
    <path id="S" fill="#3677FF" d="M 44 14 c -35 10 -18 21 0 28 c 35 12 49 46 -28 49 c -7 0 -7 -4 -1 -4 c 49 -4 72 -22 26 -40 c -51 -17 -12 -40 3 -40 c 17 -1 8 5 0 7" />
    <path id="M" fill="#FF6000"  d="M 40 51 c 31 -47 38 -45 30 -24 c -4 13 -3 13 4 1 c 13 -20 20 -22 7 14 c -1 5 -6 5 -1 -6 c 9 -23 7 -24 -6 -4 c -8 14 -12 14 -6 -5 c 6 -16 6 -20 -25 25 c -3 4 -5 3 -3 -1" />
</svg>
